<?xml version="1.0" encoding="UTF-8"?>
<svg width="50px" height="69px" viewBox="0 0 50 69" version="1.1" xmlns="http://www.w3.org/2000/svg" xmlns:xlink="http://www.w3.org/1999/xlink">
    <!-- Generator: Sketch 52.4 (67378) - http://www.bohemiancoding.com/sketch -->
    <title>logo</title>
    <desc>Created with Sketch.</desc>
    <g id="Page-1" stroke="none" stroke-width="1" fill="none" fill-rule="evenodd">
        <g id="Artboard">
            <g id="logo">
                <path d="M4.85307504,39.8048704 C1.80248789,35.6604996 0,30.5407466 0,25 C0,11.1928813 11.1928813,-1.42108547e-14 25,-1.42108547e-14 C38.8071187,-1.42108547e-14 50,11.1928813 50,25 C50,30.5487471 48.192303,35.675284 45.1337025,39.822817 L27.745082,66.7637701 C27.4128946,67.2784426 26.9669385,67.7099451 26.4416044,68.0250014 C24.5470539,69.1612116 22.090137,68.5464554 20.9539267,66.651905 L4.85307504,39.8048704 Z" id="Combined-Shape" fill="#027CF7"></path>
                <ellipse id="Oval" stroke="#FFFFFF" stroke-width="2" cx="25" cy="29" rx="9" ry="11"></ellipse>
                <circle id="Oval" stroke="#FFFFFF" stroke-width="2" fill="#027CF7" cx="17.5" cy="28.5" r="3.5"></circle>
                <circle id="Oval-Copy" stroke="#FFFFFF" stroke-width="2" fill="#027CF7" cx="32.5" cy="28.5" r="3.5"></circle>
                <path d="M16.5,32 L16.5,61.5945946" id="Line" stroke="#FFFFFF" stroke-width="2" stroke-linecap="square"></path>
                <path d="M33.5,32 L33.5,61.5945946" id="Line-Copy" stroke="#FFFFFF" stroke-width="2" stroke-linecap="square"></path>
                <circle id="Oval" stroke="#FFFFFF" fill="#FFFFFF" cx="25" cy="13" r="2"></circle>
                <path d="M25,14.5 L25.0116007,17.5" id="Line-2" stroke="#FFFFFF" stroke-width="2" stroke-linecap="square"></path>
                <path d="M16.5,32.5 L33.5,32.5" id="Line-3" stroke="#FFFFFF" stroke-width="2" stroke-linecap="square"></path>
            </g>
        </g>
    </g>
</svg>