<?xml version="1.0" encoding="UTF-8"?>
<svg width="50px" height="69px" viewBox="0 0 50 69" version="1.1" xmlns="http://www.w3.org/2000/svg" xmlns:xlink="http://www.w3.org/1999/xlink">
    <!-- Generator: Sketch 52.4 (67378) - http://www.bohemiancoding.com/sketch -->
    <title>logo</title>
    <desc>Created with Sketch.</desc>
    <g id="Page-1" stroke="none" stroke-width="1" fill="none" fill-rule="evenodd">
        <g id="Artboard">
            <g id="logo">
                <path d="M4.85307504,39.8048704 C1.80248789,35.6604996 0,30.5407466 0,25 C0,11.1928813 11.1928813,-1.42108547e-14 25,-1.42108547e-14 C38.8071187,-1.42108547e-14 50,11.1928813 50,25 C50,30.5487471 48.192303,35.675284 45.1337025,39.822817 L27.745082,66.7637701 C27.4128946,67.2784426 26.9669385,67.7099451 26.4416044,68.0250014 C24.5470539,69.1612116 22.090137,68.5464554 20.9539267,66.651905 L4.85307504,39.8048704 Z" id="Combined-Shape" fill="#027CF7"></path>
                <path d="M33.5,22 L16.5,22 C16.5,17.3055796 20.3055796,13.5 25,13.5 C29.6944204,13.5 33.5,17.3055796 33.5,22 Z" id="Combined-Shape" stroke="#FFFFFF" stroke-width="2"></path>
                <path d="M16.5,37.5 C16.5,32.8055796 20.3055796,29 25,29 C29.6944204,29 33.5,32.8055796 33.5,37.5 L16.5,37.5 Z" id="Combined-Shape-Copy" stroke="#FFFFFF" stroke-width="2" transform="translate(25.000000, 33.250000) scale(1, -1) translate(-25.000000, -33.250000) "></path>
                <path d="M33,25 C33,23.5630292 32.9639329,22.2096022 32.4315643,21.0045624 C31.1224401,18.0413018 28.1409706,16 25,16 C21.8987329,16 17.6412738,19.8026841 17.5720215,20.9977112 C17.5522919,21.8436737 17,23.5183628 17,25 C17,26.906817 33,27.2233306 33,25 Z" id="Oval" fill="#027CF7"></path>
                <circle id="Oval" stroke="#FFFFFF" stroke-width="2" cx="16.5" cy="25.5" r="3.5"></circle>
                <circle id="Oval-Copy" stroke="#FFFFFF" stroke-width="2" cx="33.5" cy="25.5" r="3.5"></circle>
                <path d="M16.5,29 L16.5,61.5540541" id="Line" stroke="#FFFFFF" stroke-width="2" stroke-linecap="square"></path>
                <path d="M33.5,29 L33.5,61.5540541" id="Line-Copy" stroke="#FFFFFF" stroke-width="2" stroke-linecap="square"></path>
                <circle id="Oval" stroke="#FFFFFF" fill="#FFFFFF" cx="25" cy="8" r="2"></circle>
                <path d="M25,9.5 L25.0116007,12.5" id="Line-2" stroke="#FFFFFF" stroke-width="2" stroke-linecap="square"></path>
            </g>
        </g>
    </g>
</svg>