<?xml version="1.0" encoding="UTF-8"?>
<svg width="50px" height="69px" viewBox="0 0 50 69" version="1.1" xmlns="http://www.w3.org/2000/svg" xmlns:xlink="http://www.w3.org/1999/xlink">
    <!-- Generator: Sketch 52.4 (67378) - http://www.bohemiancoding.com/sketch -->
    <title>logo</title>
    <desc>Created with Sketch.</desc>
    <g id="Page-1" stroke="none" stroke-width="1" fill="none" fill-rule="evenodd">
        <g id="Artboard">
            <g id="logo">
                <g>
                    <path d="M4.96372474,39.9540338 C1.84612178,35.7836345 0,30.6074097 0,25 C0,11.1928813 11.1928813,-1.42108547e-14 25,-1.42108547e-14 C38.8071187,-1.42108547e-14 50,11.1928813 50,25 C50,30.4775998 48.2383632,35.5437474 45.2507386,39.6627935 L28.3971474,66.6957879 C28.073676,67.2146329 27.6355675,67.6524189 27.1164846,67.9755083 C25.2409699,69.1428727 22.774229,68.5688034 21.6068646,66.6932887 L4.96372474,39.9540338 Z" id="Combined-Shape" fill="#5F6FEE"></path>
                    <ellipse id="Oval" stroke="#FFFFFF" stroke-width="2" cx="25" cy="29" rx="9" ry="11"></ellipse>
                    <circle id="Oval" stroke="#FFFFFF" stroke-width="2" fill="#5F6FEE" cx="17.5" cy="28.5" r="3.5"></circle>
                    <circle id="Oval-Copy" stroke="#FFFFFF" stroke-width="2" fill="#5F6FEE" cx="32.5" cy="28.5" r="3.5"></circle>
                    <path d="M16.5,32 L16.5,61.5945946" id="Line" stroke="#FFFFFF" stroke-width="2" stroke-linecap="square"></path>
                    <path d="M33.5,32 L33.5,61.5945946" id="Line-Copy" stroke="#FFFFFF" stroke-width="2" stroke-linecap="square"></path>
                    <circle id="Oval" stroke="#FFFFFF" fill="#FFFFFF" cx="25" cy="13" r="2"></circle>
                    <path d="M25,14.5 L25.0116007,17.5" id="Line-2" stroke="#FFFFFF" stroke-width="2" stroke-linecap="square"></path>
                    <path d="M16.5,32.5 L33.5,32.5" id="Line-3" stroke="#FFFFFF" stroke-width="2" stroke-linecap="square"></path>
                </g>
            </g>
        </g>
    </g>
</svg>